# xmcd
#
# Track frame offsets: 
#        150
#        14927
#        39272
#        58527
#        71932
#        87937
#        105547
#        124922
#        142132
#        153492
#        172337
#        188762
#
# Disc length: 2722 seconds
#
# Revision: 2
# Processed by: cddbd v1.5.2PL0 Copyright (c) Steve Scherf et al.
# Submitted via: ExactAudioCopy v0.95b3
#
DISCID=b30aa00c
DTITLE=Back Alley John - Out On The Highway
DYEAR=1992
DGENRE=Blues
TTITLE0=Out On The Highway
TTITLE1=Yo-Yo String
TTITLE2=9/8 Nervous Man
TTITLE3=Careless Love
TTITLE4=Pork Chop
TTITLE5=You Don't See The Blues Like Me
TTITLE6=Ham Bone Boiled
TTITLE7=The Blues Is A Memory
TTITLE8=Need My Baby
TTITLE9=No Place In Mind
TTITLE10=Pickin' The Blues
TTITLE11=Cold Blue Moon
EXTD=
EXTT0=
EXTT1=
EXTT2=
EXTT3=
EXTT4=
EXTT5=
EXTT6=
EXTT7=
EXTT8=
EXTT9=
EXTT10=
EXTT11=
PLAYORDER=
